<?xml version="1.0" encoding="utf-8"?>
<!-- Generator: Adobe Illustrator 23.1.1, SVG Export Plug-In . SVG Version: 6.00 Build 0)  -->
<svg version="1.1" id="Laag_1" xmlns="http://www.w3.org/2000/svg" xmlns:xlink="http://www.w3.org/1999/xlink" x="0px" y="0px"
	 viewBox="0 0 207.4 39" style="enable-background:new 0 0 207.4 39;" xml:space="preserve">
<style type="text/css">
	.st0{fill:#FFFFFF;}
	.st1{fill:#FFE004;}
	.st2{fill:none;stroke:#FFE004;stroke-width:2;stroke-miterlimit:10;}
	.st3{opacity:0.15;fill:#1D1D1B;}
</style>
<title>f2f logo</title>
<path class="st0" d="M66,6.1v7h-5.6v-2.8h-4.8v5.5h6v4.2h-6v4h3.2v4.3H47v-4.2h2V10.3h-2V6.1H66z"/>
<path class="st0" d="M67.3,28.3v-4.2h1.3v-7.6h-1.3v-4.1h7.4v11.7h1.5v4.2H67.3z M71.6,4.6c1.8,0,3.4,1.4,3.5,3.2
	c0,1.8-1.4,3.2-3.1,3.2c-0.1,0-0.2,0-0.4,0c-1.8,0-3.3-1.4-3.4-3.2C68.2,6,69.8,4.5,71.6,4.6C71.6,4.6,71.6,4.6,71.6,4.6z"/>
<path class="st0" d="M77.8,28.3v-4.2h1.4v-7.6h-1.4v-4.1h6l1,2c0.8-1.5,1.7-2.8,4.9-2.8v5.7c-2.9,0-4.5,0.7-4.5,3.5v3.3h1.6v4.2
	H77.8L77.8,28.3z"/>
<path class="st0" d="M90.6,22.6h4.2c0,1.7,2.4,2.1,3.4,2.1c0.6,0.1,1.2-0.3,1.4-0.9c0-0.1,0-0.1,0-0.2c0-1-2.4-1.1-4.7-1.9
	s-4.2-2.1-4.2-5.1c0-3.2,3.3-4.6,5.6-4.6c1.9-0.1,3.7,0.9,4.7,2.5l0.2-2.1h3.9v5.7H101c0-1.3-1.7-2.4-3.2-2.4
	c-0.6-0.1-1.2,0.4-1.2,1c0,0.1,0,0.1,0,0.2c0,0.9,1.9,1.3,3.9,2c2.4,0.8,5.1,1.8,5.1,5.1c0,3-2.8,4.8-5.9,4.8
	c-1.9,0.1-3.7-0.8-4.9-2.3l-0.2,1.9h-4L90.6,22.6L90.6,22.6z"/>
<path class="st0" d="M108.4,12.4V9.5l5.8-1.9v4.8h3v4.1h-3v5.6c0,1.1-0.2,2.5,1,2.5c0.7-0.1,1.4-0.3,2-0.5v4.1
	c-1.2,0.4-2.5,0.6-3.8,0.6c-4.8,0-4.9-2.6-5-6.7v-5.6h-1.7v-4.1H108.4z"/>
<path class="st0" d="M118.8,9.7c2-2.5,5-3.9,8.2-3.9c4.2,0,7.6,2.7,7.6,7c0,3.6-1.7,4.9-5.1,7.1c-1.5,1-4,3-4.8,4.2h5.6v-2.6h5.3
	v6.8h-17.1v-4.6c1.1-2.1,2.7-4,4.6-5.4c2.2-2,5.6-3.3,5.6-5.3c0-1.6-1.2-2.1-2.7-2.1c-1.7,0-3,1.4-3.9,2.4L118.8,9.7z"/>
<path class="st0" d="M156.3,6.1v7h-5.6v-2.8h-4.8v5.5h6v4.2h-6v4h3.2v4.3h-11.8v-4.2h2V10.3h-2V6.1H156.3L156.3,6.1z"/>
<path class="st0" d="M157.6,28.3v-4.2h1.3v-7.6h-1.3v-4.1h7.4v11.7h1.5v4.2H157.6z M161.9,4.6c1.8,0,3.4,1.4,3.5,3.2
	c0,1.8-1.4,3.2-3.1,3.2c-0.1,0-0.2,0-0.4,0c-1.8,0-3.3-1.4-3.4-3.2C158.5,6,160,4.5,161.9,4.6C161.9,4.6,161.9,4.6,161.9,4.6
	L161.9,4.6z"/>
<path class="st0" d="M168,28.3v-4.2h1.3v-7.6H168v-4.1h6.8l0.7,2c1-1.6,2.7-2.5,4.5-2.5c4.9,0,5.8,3.7,5.8,7v5.3h1.5v4.1h-8v-8.7
	c0-1.1,0.1-3-1.8-3c-1.6,0-2,1.6-2,3v4.5h2.3v4.2H168z"/>
<path class="st0" d="M198,8.6V4.5h7.9v19.7h1.5v4.1H200l-0.5-1.2c-1.1,1-2.5,1.5-4,1.5c-4.5,0-7.4-4-7.4-8.4c0-5,3.5-8.1,7.4-8.1
	c1.4,0,2.8,0.4,4,1.2V8.6H198z M197.2,24.1c1.2,0,2.4-1.6,2.3-4.1c0-2.2-1.1-3.8-2.3-3.8s-2.2,1.6-2.2,4
	C194.9,22.1,195.8,24.1,197.2,24.1z"/>
<path class="st1" d="M1.5,37.5L1.5,37.5c-1.3-1.3-1.8-2.8-1.2-3.4l9-9.5l4.6,4.6l-9,9.5C4.2,39.3,2.7,38.8,1.5,37.5z"/>
<path class="st1" d="M18.1,21.6l1.1-14.4l-1.8-2.8c0,0,1.7-0.8,4.6-0.8s4.6,0.8,4.6,0.8l-1.8,2.8l1.1,14.4L22,28.5L18.1,21.6z"/>
<circle class="st2" cx="22" cy="16.3" r="15.3"/>
<path class="st3" d="M24.9,8.8l-6.4,6.9l0.4-5.7l5.5-6.3c0.2,0,0.8,0.2,1,0.2c0.5,0.1,1.1,0.4,1.1,0.4l0,0l-1.8,2.8L24.9,8.8z"/>
<polygon class="st3" points="25.6,18.3 19.9,24.8 18.1,21.6 25.3,13.9 "/>
</svg>
